<svg id="Calque_1" data-name="Calque 1" xmlns="http://www.w3.org/2000/svg" xmlns:xlink="http://www.w3.org/1999/xlink" viewBox="0 0 373.72 304.34"><defs><style>.cls-1{fill:url(#Dégradé_sans_nom_24);}.cls-2{fill:url(#Dégradé_sans_nom_24-2);}.cls-3{fill:url(#Dégradé_sans_nom_24-3);}.cls-4{fill:url(#Dégradé_sans_nom_24-4);}</style><linearGradient id="Dégradé_sans_nom_24" x1="32.83" y1="145.3" x2="327.15" y2="157.61" gradientUnits="userSpaceOnUse"><stop offset="0" stop-color="#3eb2e7"/><stop offset="1" stop-color="#38519f"/></linearGradient><linearGradient id="Dégradé_sans_nom_24-2" x1="57.05" y1="146.32" x2="307.98" y2="156.82" xlink:href="#Dégradé_sans_nom_24"/><linearGradient id="Dégradé_sans_nom_24-3" x1="53.25" y1="152.17" x2="329.75" y2="152.17" xlink:href="#Dégradé_sans_nom_24"/><linearGradient id="Dégradé_sans_nom_24-4" x1="53.59" y1="152.17" x2="326.72" y2="152.17" xlink:href="#Dégradé_sans_nom_24"/></defs><title>Logo WWA</title><path class="cls-1" d="M197,73.53c-41.16,0-74.53,35.21-74.53,78.64s33.37,78.64,74.53,78.64,74.53-35.21,74.53-78.64S238.17,73.53,197,73.53Zm0,150.84c-37.79,0-68.43-32.32-68.43-72.2S159.22,80,197,80s68.43,32.32,68.43,72.2S234.81,224.37,197,224.37Z"/><path class="cls-2" d="M260.57,152a71.74,71.74,0,0,0-.56-8.48c0-.16,0-.34,0-.5s-.12-.55-.16-.84a70.73,70.73,0,0,0-1.56-7.9s0-.06,0-.09A68.48,68.48,0,0,0,251,116.76L231.5,196.41H209.16l-12.21-52-12,52H167.17L188.29,111h17.57l14.53,70.43L234.91,111h12.24a64.68,64.68,0,0,0-21.85-19l-.7-.36c-1.75-.89-3.53-1.7-5.36-2.42l-1.42-.55c-1.63-.6-3.29-1.11-5-1.57-.62-.17-1.23-.36-1.85-.51-1.66-.39-3.34-.68-5-.94-.63-.09-1.25-.23-1.89-.3a56.7,56.7,0,0,0-14.1,0c-.63.07-1.25.21-1.88.3-1.7.25-3.39.55-5.05,1-.62.15-1.23.33-1.84.5-1.7.46-3.36,1-5,1.57l-1.42.55c-1.84.73-3.63,1.54-5.39,2.44l-.66.34a64.51,64.51,0,0,0-21.86,19h12.24l9.65,39.51L159.36,184l-16.3-67.2A69.16,69.16,0,0,0,135.6,135c-.1.39-.2.78-.29,1.18-.31,1.33-.58,2.67-.81,4-.15.84-.25,1.69-.37,2.54-.14,1.07-.29,2.14-.38,3.22-.16,1.76-.24,3.54-.26,5.34,0,.24,0,.47,0,.72v.14c0,37.13,28.51,67.33,63.55,67.33s63.56-30.2,63.56-67.33V152Z"/><path class="cls-3" d="M296.11,124.67h-8.9l-10.3,23.59c.06,1.31.18,2.59.18,3.91a82.31,82.31,0,0,1-4.77,27.5h.7l5.61-13.18h25.82L310,179.67h10.15Zm-14,33.31,9.36-21.84L300.94,158Z"/><path class="cls-4" d="M118.69,152.17a84.16,84.16,0,0,1,.66-10l-7.41,23L98.53,124.59H90.41L77,165.24,64,124.75H53.59l19,55h8.27l13.42-39.24,13.42,39.24H116l4.16-12A83.66,83.66,0,0,1,118.69,152.17Z"/></svg>